<svg width="40" height="40" viewBox="0 0 32 32" fill="none" xmlns="http://www.w3.org/2000/svg">
    <g id="Shopify.com svg">
    <g id="Group">
    <g id="Group_2">
    <path id="Vector" d="M21.2105 3.80402C21.2105 3.80402 20.8505 3.90683 20.259 4.08675C20.1561 3.75261 20.0018 3.36707 19.7961 2.95583C19.1274 1.67069 18.1245 0.976712 16.9415 0.976712C16.8644 0.976712 16.7872 0.976712 16.6843 1.00241C16.6586 0.951009 16.6072 0.925306 16.5815 0.8739C16.0671 0.308439 15.3985 0.0514104 14.6013 0.0771132C13.0583 0.128519 11.5152 1.23374 10.2808 3.21286C9.40646 4.60081 8.73782 6.3486 8.55781 7.71085C6.78334 8.25061 5.54893 8.63615 5.52321 8.66185C4.62312 8.94458 4.59741 8.97029 4.49454 9.81848C4.34024 10.461 2 28.5815 2 28.5815L21.442 31.9486V3.75262C21.3391 3.77832 21.2619 3.77832 21.2105 3.80402ZM16.7101 5.19197C15.6814 5.50041 14.5498 5.86025 13.444 6.19438C13.7526 4.98635 14.3698 3.77832 15.0899 2.98153C15.3728 2.6988 15.7585 2.36466 16.1957 2.15904C16.6329 3.08434 16.7358 4.34378 16.7101 5.19197ZM14.627 1.10523C14.987 1.10523 15.2956 1.18233 15.5528 1.33655C15.1413 1.54217 14.7299 1.87631 14.3441 2.26185C13.3669 3.31567 12.6211 4.96065 12.3125 6.52852C11.3867 6.81125 10.4609 7.09398 9.6122 7.35101C10.1523 4.90924 12.2353 1.18233 14.627 1.10523ZM11.6181 15.2418C11.721 16.8868 16.0671 17.2466 16.3243 21.1277C16.5043 24.1863 14.7041 26.2683 12.1067 26.4225C8.96928 26.6281 7.24625 24.7775 7.24625 24.7775L7.91488 21.9502C7.91488 21.9502 9.63792 23.261 11.0266 23.1582C11.9267 23.1068 12.261 22.3615 12.2353 21.8474C12.1067 19.6884 8.55781 19.8169 8.32635 16.2699C8.12062 13.3141 10.0751 10.3068 14.3955 10.0241C16.0671 9.92129 16.9158 10.3325 16.9158 10.3325L15.9386 14.0337C15.9386 14.0337 14.8327 13.5197 13.5212 13.6225C11.6181 13.751 11.5924 14.959 11.6181 15.2418ZM17.7387 4.88354C17.7387 4.11245 17.6359 3.00723 17.2758 2.08193C18.4588 2.31326 19.0246 3.6241 19.2817 4.42089C18.8188 4.5494 18.3045 4.70362 17.7387 4.88354Z" fill="black"/>
    <path id="Vector_2" d="M22.085 31.8458L30.1601 29.841C30.1601 29.841 26.6883 6.3743 26.6626 6.22009C26.6369 6.06587 26.5083 5.96306 26.3797 5.96306C26.2511 5.96306 23.988 5.91165 23.988 5.91165C23.988 5.91165 22.5993 4.57511 22.085 4.06105V31.8458Z" fill="black"/>
    </g>
    </g>
    </g>
    </svg>
    